<svg width="801" height="968" viewBox="0 0 801 968" fill="none" xmlns="http://www.w3.org/2000/svg">
<path d="M374.015 6.82724C389.001 -1.96678 407.796 -2.02035 422.838 6.68271L777.122 211.788C792.003 220.403 799.627 234.924 800.054 249.606H800.074V720.193H800.062C799.71 735.258 791.784 750.171 776.341 758.728L423.314 961.199C408.328 969.507 389.838 969.244 375.106 960.52L22.6172 759.081C7.58527 750.178 0.0763699 735.185 0.0751953 720.193H0.0742188V249.606H0.136719C0.883938 235.351 8.43429 221.386 22.7783 212.966L374.015 6.82724ZM416.518 731.195C405.437 737.338 391.767 737.145 380.875 730.693L156.143 602.244L120.39 623.233C98.061 636.343 97.9952 667.628 120.271 680.824L380.879 829.78C391.771 836.232 405.441 836.426 416.521 830.283L677.528 680.56C700.664 667.739 700.983 635.607 678.105 622.359L678.102 622.356L642.345 601.65L416.518 731.195ZM416.518 564.195C405.437 570.338 391.767 570.145 380.875 563.693L156.143 435.244L120.39 456.233C98.061 469.343 97.9952 500.628 120.271 513.824L380.879 662.781C391.771 669.233 405.441 669.426 416.521 663.283L677.528 513.56C700.664 500.739 700.983 468.607 678.105 455.359L678.102 455.356L642.345 434.65L416.518 564.195ZM416.168 136.754C405.047 130.319 391.151 130.359 380.071 136.86L120.39 289.267C98.0611 302.373 97.9952 333.652 120.271 346.846L380.879 495.777C391.771 502.228 405.44 502.422 416.521 496.28L677.526 346.585C700.666 333.763 700.982 301.641 678.104 288.396L416.168 136.754Z" fill="#6680FF"/>
</svg>
